<mxfile host="app.diagrams.net" modified="2023-09-19T14:13:10.789Z" agent="Mozilla/5.0 (Windows NT 10.0; Win64; x64) AppleWebKit/537.36 (KHTML, like Gecko) Chrome/116.0.0.0 Safari/537.36" etag="Tc5PEwlTR42-5kZy2Gb8" version="21.7.1" type="device">
  <diagram name="페이지-1" id="TQ0cyp87wXcoUcHucZ0J">
    <mxGraphModel dx="3871" dy="2605" grid="1" gridSize="10" guides="1" tooltips="1" connect="1" arrows="1" fold="1" page="1" pageScale="1" pageWidth="827" pageHeight="1169" math="0" shadow="0">
      <root>
        <mxCell id="0" />
        <mxCell id="1" parent="0" />
        <mxCell id="rkLHnBhGYaF2uc3NjKM3-2" value="" style="endArrow=classic;html=1;rounded=0;exitX=1;exitY=0.75;exitDx=0;exitDy=0;" edge="1" parent="1" source="rkLHnBhGYaF2uc3NjKM3-12">
          <mxGeometry width="50" height="50" relative="1" as="geometry">
            <mxPoint x="490" y="340" as="sourcePoint" />
            <mxPoint x="610" y="420" as="targetPoint" />
          </mxGeometry>
        </mxCell>
        <mxCell id="rkLHnBhGYaF2uc3NjKM3-4" value="&lt;span style=&quot;font-size: 18px;&quot;&gt;List.do&lt;br&gt;&lt;/span&gt;" style="text;html=1;strokeColor=none;fillColor=#FFFF78;align=center;verticalAlign=middle;whiteSpace=wrap;rounded=0;" vertex="1" parent="1">
          <mxGeometry x="610" y="370" width="120" height="100" as="geometry" />
        </mxCell>
        <mxCell id="rkLHnBhGYaF2uc3NjKM3-5" value="" style="endArrow=classic;html=1;rounded=0;exitX=0.5;exitY=1;exitDx=0;exitDy=0;" edge="1" parent="1">
          <mxGeometry width="50" height="50" relative="1" as="geometry">
            <mxPoint x="420" y="370" as="sourcePoint" />
            <mxPoint x="420" y="460" as="targetPoint" />
          </mxGeometry>
        </mxCell>
        <mxCell id="rkLHnBhGYaF2uc3NjKM3-6" value="" style="endArrow=classic;html=1;rounded=0;exitX=1;exitY=0.5;exitDx=0;exitDy=0;entryX=0;entryY=0.5;entryDx=0;entryDy=0;" edge="1" parent="1" source="rkLHnBhGYaF2uc3NjKM3-4" target="rkLHnBhGYaF2uc3NjKM3-7">
          <mxGeometry width="50" height="50" relative="1" as="geometry">
            <mxPoint x="540" y="430" as="sourcePoint" />
            <mxPoint x="820" y="420" as="targetPoint" />
          </mxGeometry>
        </mxCell>
        <mxCell id="rkLHnBhGYaF2uc3NjKM3-7" value="&lt;font style=&quot;font-size: 19px;&quot;&gt;noticeList.jsp&lt;/font&gt;" style="rounded=0;whiteSpace=wrap;html=1;" vertex="1" parent="1">
          <mxGeometry x="850" y="390" width="160" height="60" as="geometry" />
        </mxCell>
        <mxCell id="rkLHnBhGYaF2uc3NjKM3-8" value="&lt;span style=&quot;font-size: 18px;&quot;&gt;detail.do&lt;br&gt;&lt;/span&gt;" style="text;html=1;strokeColor=none;fillColor=#FFFF78;align=center;verticalAlign=middle;whiteSpace=wrap;rounded=0;" vertex="1" parent="1">
          <mxGeometry x="360" y="460" width="120" height="100" as="geometry" />
        </mxCell>
        <mxCell id="rkLHnBhGYaF2uc3NjKM3-9" value="" style="endArrow=classic;html=1;rounded=0;exitX=0;exitY=0.75;exitDx=0;exitDy=0;" edge="1" parent="1" source="rkLHnBhGYaF2uc3NjKM3-12">
          <mxGeometry width="50" height="50" relative="1" as="geometry">
            <mxPoint x="240" y="250" as="sourcePoint" />
            <mxPoint x="250" y="380" as="targetPoint" />
          </mxGeometry>
        </mxCell>
        <mxCell id="rkLHnBhGYaF2uc3NjKM3-12" value="&lt;font style=&quot;font-size: 18px;&quot;&gt;Notice&lt;br style=&quot;border-color: var(--border-color);&quot;&gt;Controller.java&lt;/font&gt;" style="shape=hexagon;perimeter=hexagonPerimeter2;whiteSpace=wrap;html=1;fixedSize=1;fillColor=#8FFBFF;" vertex="1" parent="1">
          <mxGeometry x="335" y="290" width="170" height="80" as="geometry" />
        </mxCell>
        <mxCell id="rkLHnBhGYaF2uc3NjKM3-13" value="&lt;span style=&quot;font-size: 18px;&quot;&gt;insert.do&lt;br&gt;&lt;/span&gt;" style="text;html=1;strokeColor=none;fillColor=#FFFF78;align=center;verticalAlign=middle;whiteSpace=wrap;rounded=0;" vertex="1" parent="1">
          <mxGeometry x="130" y="330" width="120" height="100" as="geometry" />
        </mxCell>
        <mxCell id="rkLHnBhGYaF2uc3NjKM3-14" value="" style="endArrow=classic;html=1;rounded=0;exitX=0;exitY=0.25;exitDx=0;exitDy=0;" edge="1" parent="1" source="rkLHnBhGYaF2uc3NjKM3-12">
          <mxGeometry width="50" height="50" relative="1" as="geometry">
            <mxPoint x="290" y="240" as="sourcePoint" />
            <mxPoint x="250" y="270" as="targetPoint" />
          </mxGeometry>
        </mxCell>
        <mxCell id="rkLHnBhGYaF2uc3NjKM3-15" value="&lt;span style=&quot;font-size: 18px;&quot;&gt;delete.do&lt;br&gt;&lt;/span&gt;" style="text;html=1;strokeColor=none;fillColor=#FFFF78;align=center;verticalAlign=middle;whiteSpace=wrap;rounded=0;" vertex="1" parent="1">
          <mxGeometry x="130" y="210" width="120" height="100" as="geometry" />
        </mxCell>
        <mxCell id="rkLHnBhGYaF2uc3NjKM3-16" value="" style="endArrow=classic;html=1;rounded=0;exitX=0.5;exitY=0;exitDx=0;exitDy=0;" edge="1" parent="1" source="rkLHnBhGYaF2uc3NjKM3-12">
          <mxGeometry width="50" height="50" relative="1" as="geometry">
            <mxPoint x="460" y="170" as="sourcePoint" />
            <mxPoint x="420" y="220" as="targetPoint" />
          </mxGeometry>
        </mxCell>
        <mxCell id="rkLHnBhGYaF2uc3NjKM3-17" value="&lt;span style=&quot;font-size: 18px;&quot;&gt;edit.do&lt;br&gt;&lt;/span&gt;" style="text;html=1;strokeColor=none;fillColor=#FFFF78;align=center;verticalAlign=middle;whiteSpace=wrap;rounded=0;" vertex="1" parent="1">
          <mxGeometry x="360" y="120" width="120" height="100" as="geometry" />
        </mxCell>
        <mxCell id="rkLHnBhGYaF2uc3NjKM3-18" value="" style="endArrow=classic;html=1;rounded=0;exitX=0;exitY=0.5;exitDx=0;exitDy=0;entryX=1;entryY=0.5;entryDx=0;entryDy=0;" edge="1" parent="1" source="rkLHnBhGYaF2uc3NjKM3-15" target="rkLHnBhGYaF2uc3NjKM3-19">
          <mxGeometry width="50" height="50" relative="1" as="geometry">
            <mxPoint x="60" y="140" as="sourcePoint" />
            <mxPoint x="-34" y="260" as="targetPoint" />
          </mxGeometry>
        </mxCell>
        <mxCell id="rkLHnBhGYaF2uc3NjKM3-19" value="&lt;font style=&quot;font-size: 19px;&quot;&gt;noticeList.jsp&lt;/font&gt;" style="rounded=0;whiteSpace=wrap;html=1;" vertex="1" parent="1">
          <mxGeometry x="-200" y="230" width="160" height="60" as="geometry" />
        </mxCell>
        <mxCell id="rkLHnBhGYaF2uc3NjKM3-20" value="" style="endArrow=classic;html=1;rounded=0;exitX=0;exitY=0.5;exitDx=0;exitDy=0;" edge="1" parent="1" source="rkLHnBhGYaF2uc3NjKM3-13">
          <mxGeometry width="50" height="50" relative="1" as="geometry">
            <mxPoint x="500" y="90" as="sourcePoint" />
            <mxPoint x="-40" y="380" as="targetPoint" />
          </mxGeometry>
        </mxCell>
        <mxCell id="rkLHnBhGYaF2uc3NjKM3-21" value="&lt;font style=&quot;font-size: 19px;&quot;&gt;noticeInsert.jsp&lt;/font&gt;" style="rounded=0;whiteSpace=wrap;html=1;" vertex="1" parent="1">
          <mxGeometry x="-200" y="350" width="160" height="60" as="geometry" />
        </mxCell>
        <mxCell id="rkLHnBhGYaF2uc3NjKM3-23" value="" style="endArrow=classic;html=1;rounded=0;exitX=0.5;exitY=0;exitDx=0;exitDy=0;" edge="1" parent="1" source="rkLHnBhGYaF2uc3NjKM3-15">
          <mxGeometry width="50" height="50" relative="1" as="geometry">
            <mxPoint x="500" y="90" as="sourcePoint" />
            <mxPoint x="190" y="120" as="targetPoint" />
          </mxGeometry>
        </mxCell>
        <mxCell id="rkLHnBhGYaF2uc3NjKM3-24" value="&lt;font style=&quot;font-size: 18px;&quot;&gt;notice&lt;/font&gt;" style="shape=cube;whiteSpace=wrap;html=1;boundedLbl=1;backgroundOutline=1;darkOpacity=0.05;darkOpacity2=0.1;" vertex="1" parent="1">
          <mxGeometry x="130" y="10" width="120" height="110" as="geometry" />
        </mxCell>
        <mxCell id="rkLHnBhGYaF2uc3NjKM3-25" value="DB에서 삭제요청" style="text;html=1;strokeColor=none;fillColor=none;align=center;verticalAlign=middle;whiteSpace=wrap;rounded=0;" vertex="1" parent="1">
          <mxGeometry x="180" y="155" width="120" height="30" as="geometry" />
        </mxCell>
        <mxCell id="rkLHnBhGYaF2uc3NjKM3-26" value="게시글 삭제후 목록으로 이동" style="text;html=1;strokeColor=none;fillColor=none;align=center;verticalAlign=middle;whiteSpace=wrap;rounded=0;" vertex="1" parent="1">
          <mxGeometry x="-20" y="230" width="130" height="30" as="geometry" />
        </mxCell>
        <mxCell id="rkLHnBhGYaF2uc3NjKM3-27" value="공지사항 추가 페이지로 이동" style="text;html=1;strokeColor=none;fillColor=none;align=center;verticalAlign=middle;whiteSpace=wrap;rounded=0;" vertex="1" parent="1">
          <mxGeometry x="-20" y="350" width="130" height="30" as="geometry" />
        </mxCell>
        <mxCell id="rkLHnBhGYaF2uc3NjKM3-28" value="공지사항 삭제 요청" style="text;html=1;strokeColor=none;fillColor=none;align=center;verticalAlign=middle;whiteSpace=wrap;rounded=0;" vertex="1" parent="1">
          <mxGeometry x="270" y="260" width="120" height="30" as="geometry" />
        </mxCell>
        <mxCell id="rkLHnBhGYaF2uc3NjKM3-29" value="공지사항 추가 요청" style="text;html=1;strokeColor=none;fillColor=none;align=center;verticalAlign=middle;whiteSpace=wrap;rounded=0;" vertex="1" parent="1">
          <mxGeometry x="260" y="365" width="120" height="30" as="geometry" />
        </mxCell>
        <mxCell id="rkLHnBhGYaF2uc3NjKM3-30" value="공지사항 상세보기&lt;br&gt;&amp;nbsp;요청" style="text;html=1;strokeColor=none;fillColor=none;align=center;verticalAlign=middle;whiteSpace=wrap;rounded=0;" vertex="1" parent="1">
          <mxGeometry x="414" y="400" width="120" height="30" as="geometry" />
        </mxCell>
        <mxCell id="rkLHnBhGYaF2uc3NjKM3-31" value="공지사항 목록 요청" style="text;html=1;strokeColor=none;fillColor=none;align=center;verticalAlign=middle;whiteSpace=wrap;rounded=0;" vertex="1" parent="1">
          <mxGeometry x="510" y="340" width="120" height="30" as="geometry" />
        </mxCell>
        <mxCell id="rkLHnBhGYaF2uc3NjKM3-32" value="공지사항 수정요청" style="text;html=1;strokeColor=none;fillColor=none;align=center;verticalAlign=middle;whiteSpace=wrap;rounded=0;" vertex="1" parent="1">
          <mxGeometry x="413.5" y="240" width="120" height="30" as="geometry" />
        </mxCell>
        <mxCell id="rkLHnBhGYaF2uc3NjKM3-35" value="" style="endArrow=classic;html=1;rounded=0;exitX=0.5;exitY=0;exitDx=0;exitDy=0;entryX=0.508;entryY=1.009;entryDx=0;entryDy=0;entryPerimeter=0;" edge="1" parent="1" source="rkLHnBhGYaF2uc3NjKM3-37" target="rkLHnBhGYaF2uc3NjKM3-39">
          <mxGeometry width="50" height="50" relative="1" as="geometry">
            <mxPoint x="-463" y="285" as="sourcePoint" />
            <mxPoint x="-400" y="235" as="targetPoint" />
          </mxGeometry>
        </mxCell>
        <mxCell id="rkLHnBhGYaF2uc3NjKM3-36" value="" style="endArrow=classic;html=1;rounded=0;exitX=0;exitY=0.5;exitDx=0;exitDy=0;" edge="1" parent="1" source="rkLHnBhGYaF2uc3NjKM3-21">
          <mxGeometry width="50" height="50" relative="1" as="geometry">
            <mxPoint x="-80" y="260" as="sourcePoint" />
            <mxPoint x="-340" y="380" as="targetPoint" />
          </mxGeometry>
        </mxCell>
        <mxCell id="rkLHnBhGYaF2uc3NjKM3-37" value="&lt;span style=&quot;font-size: 18px;&quot;&gt;insert.do&lt;br&gt;&lt;/span&gt;" style="text;html=1;strokeColor=none;fillColor=#FFFF78;align=center;verticalAlign=middle;whiteSpace=wrap;rounded=0;" vertex="1" parent="1">
          <mxGeometry x="-460" y="330" width="120" height="100" as="geometry" />
        </mxCell>
        <mxCell id="rkLHnBhGYaF2uc3NjKM3-38" value="입력 데이터 추가 요청" style="text;html=1;strokeColor=none;fillColor=none;align=center;verticalAlign=middle;whiteSpace=wrap;rounded=0;" vertex="1" parent="1">
          <mxGeometry x="-330" y="350" width="130" height="30" as="geometry" />
        </mxCell>
        <mxCell id="rkLHnBhGYaF2uc3NjKM3-39" value="&lt;font style=&quot;font-size: 18px;&quot;&gt;notice&lt;/font&gt;" style="shape=cube;whiteSpace=wrap;html=1;boundedLbl=1;backgroundOutline=1;darkOpacity=0.05;darkOpacity2=0.1;" vertex="1" parent="1">
          <mxGeometry x="-460" y="130" width="120" height="110" as="geometry" />
        </mxCell>
        <mxCell id="rkLHnBhGYaF2uc3NjKM3-40" value="DB에 추가요청" style="text;html=1;strokeColor=none;fillColor=none;align=center;verticalAlign=middle;whiteSpace=wrap;rounded=0;" vertex="1" parent="1">
          <mxGeometry x="-410" y="280" width="120" height="30" as="geometry" />
        </mxCell>
        <mxCell id="rkLHnBhGYaF2uc3NjKM3-41" value="&lt;font style=&quot;font-size: 19px;&quot;&gt;noticeList.jsp&lt;/font&gt;" style="rounded=0;whiteSpace=wrap;html=1;" vertex="1" parent="1">
          <mxGeometry x="-750" y="350" width="160" height="60" as="geometry" />
        </mxCell>
        <mxCell id="rkLHnBhGYaF2uc3NjKM3-42" value="" style="endArrow=classic;html=1;rounded=0;exitX=0;exitY=0.5;exitDx=0;exitDy=0;entryX=1;entryY=0.5;entryDx=0;entryDy=0;" edge="1" parent="1" source="rkLHnBhGYaF2uc3NjKM3-37" target="rkLHnBhGYaF2uc3NjKM3-41">
          <mxGeometry width="50" height="50" relative="1" as="geometry">
            <mxPoint x="-80" y="260" as="sourcePoint" />
            <mxPoint x="-30" y="210" as="targetPoint" />
          </mxGeometry>
        </mxCell>
        <mxCell id="rkLHnBhGYaF2uc3NjKM3-43" value="게시글 추가후 목록으로 이동" style="text;html=1;strokeColor=none;fillColor=none;align=center;verticalAlign=middle;whiteSpace=wrap;rounded=0;" vertex="1" parent="1">
          <mxGeometry x="-590" y="350" width="130" height="30" as="geometry" />
        </mxCell>
        <mxCell id="rkLHnBhGYaF2uc3NjKM3-44" value="&lt;span style=&quot;font-size: 19px;&quot;&gt;noticeDetail.jsp&lt;/span&gt;" style="rounded=0;whiteSpace=wrap;html=1;" vertex="1" parent="1">
          <mxGeometry x="345" y="650" width="160" height="60" as="geometry" />
        </mxCell>
        <mxCell id="rkLHnBhGYaF2uc3NjKM3-45" value="" style="endArrow=classic;html=1;rounded=0;exitX=0.5;exitY=1;exitDx=0;exitDy=0;" edge="1" parent="1">
          <mxGeometry width="50" height="50" relative="1" as="geometry">
            <mxPoint x="419.52" y="560" as="sourcePoint" />
            <mxPoint x="419.52" y="650" as="targetPoint" />
          </mxGeometry>
        </mxCell>
        <mxCell id="rkLHnBhGYaF2uc3NjKM3-47" value="해당 공지사항 상세보기 페이지로 이동" style="text;html=1;strokeColor=none;fillColor=none;align=center;verticalAlign=middle;whiteSpace=wrap;rounded=0;" vertex="1" parent="1">
          <mxGeometry x="420" y="585" width="130" height="30" as="geometry" />
        </mxCell>
        <mxCell id="rkLHnBhGYaF2uc3NjKM3-48" value="" style="endArrow=classic;html=1;rounded=0;exitX=0.5;exitY=0;exitDx=0;exitDy=0;" edge="1" parent="1" source="rkLHnBhGYaF2uc3NjKM3-17">
          <mxGeometry width="50" height="50" relative="1" as="geometry">
            <mxPoint x="590" y="150" as="sourcePoint" />
            <mxPoint x="420" y="20" as="targetPoint" />
          </mxGeometry>
        </mxCell>
        <mxCell id="rkLHnBhGYaF2uc3NjKM3-49" value="&lt;span style=&quot;font-size: 19px;&quot;&gt;noticeEdit.jsp&lt;/span&gt;" style="rounded=0;whiteSpace=wrap;html=1;" vertex="1" parent="1">
          <mxGeometry x="340" y="-40" width="160" height="60" as="geometry" />
        </mxCell>
        <mxCell id="rkLHnBhGYaF2uc3NjKM3-50" value="공지사항 수정 페이지로 이동" style="text;html=1;strokeColor=none;fillColor=none;align=center;verticalAlign=middle;whiteSpace=wrap;rounded=0;" vertex="1" parent="1">
          <mxGeometry x="420" y="60" width="130" height="30" as="geometry" />
        </mxCell>
        <mxCell id="rkLHnBhGYaF2uc3NjKM3-51" value="" style="endArrow=classic;html=1;rounded=0;exitX=1;exitY=0.5;exitDx=0;exitDy=0;" edge="1" parent="1" source="rkLHnBhGYaF2uc3NjKM3-53">
          <mxGeometry width="50" height="50" relative="1" as="geometry">
            <mxPoint x="590" y="-40" as="sourcePoint" />
            <mxPoint x="610" y="-190" as="targetPoint" />
          </mxGeometry>
        </mxCell>
        <mxCell id="rkLHnBhGYaF2uc3NjKM3-52" value="" style="endArrow=classic;html=1;rounded=0;exitX=0.5;exitY=0;exitDx=0;exitDy=0;" edge="1" parent="1" source="rkLHnBhGYaF2uc3NjKM3-49">
          <mxGeometry width="50" height="50" relative="1" as="geometry">
            <mxPoint x="590" y="-40" as="sourcePoint" />
            <mxPoint x="420" y="-140" as="targetPoint" />
          </mxGeometry>
        </mxCell>
        <mxCell id="rkLHnBhGYaF2uc3NjKM3-53" value="&lt;span style=&quot;font-size: 18px;&quot;&gt;edit.do&lt;br&gt;&lt;/span&gt;" style="text;html=1;strokeColor=none;fillColor=#FFFF78;align=center;verticalAlign=middle;whiteSpace=wrap;rounded=0;" vertex="1" parent="1">
          <mxGeometry x="365" y="-240" width="120" height="100" as="geometry" />
        </mxCell>
        <mxCell id="rkLHnBhGYaF2uc3NjKM3-54" value="&lt;font style=&quot;font-size: 18px;&quot;&gt;notice&lt;/font&gt;" style="shape=cube;whiteSpace=wrap;html=1;boundedLbl=1;backgroundOutline=1;darkOpacity=0.05;darkOpacity2=0.1;" vertex="1" parent="1">
          <mxGeometry x="610" y="-245" width="120" height="110" as="geometry" />
        </mxCell>
        <mxCell id="rkLHnBhGYaF2uc3NjKM3-55" value="DB에서 수정요청" style="text;html=1;strokeColor=none;fillColor=none;align=center;verticalAlign=middle;whiteSpace=wrap;rounded=0;" vertex="1" parent="1">
          <mxGeometry x="490" y="-220" width="120" height="30" as="geometry" />
        </mxCell>
        <mxCell id="rkLHnBhGYaF2uc3NjKM3-56" value="입력된 데이터 추가 요청" style="text;html=1;strokeColor=none;fillColor=none;align=center;verticalAlign=middle;whiteSpace=wrap;rounded=0;" vertex="1" parent="1">
          <mxGeometry x="420" y="-100" width="140" height="30" as="geometry" />
        </mxCell>
        <mxCell id="rkLHnBhGYaF2uc3NjKM3-58" value="" style="endArrow=classic;html=1;rounded=0;exitX=0.5;exitY=0;exitDx=0;exitDy=0;" edge="1" parent="1" source="rkLHnBhGYaF2uc3NjKM3-53">
          <mxGeometry width="50" height="50" relative="1" as="geometry">
            <mxPoint x="370" y="-320" as="sourcePoint" />
            <mxPoint x="425" y="-340" as="targetPoint" />
          </mxGeometry>
        </mxCell>
        <mxCell id="rkLHnBhGYaF2uc3NjKM3-60" value="&lt;font style=&quot;font-size: 19px;&quot;&gt;noticeList.jsp&lt;/font&gt;" style="rounded=0;whiteSpace=wrap;html=1;" vertex="1" parent="1">
          <mxGeometry x="350" y="-400" width="160" height="60" as="geometry" />
        </mxCell>
        <mxCell id="rkLHnBhGYaF2uc3NjKM3-61" value="DB에 입력후 목록 페이지로 이동" style="text;html=1;strokeColor=none;fillColor=none;align=center;verticalAlign=middle;whiteSpace=wrap;rounded=0;" vertex="1" parent="1">
          <mxGeometry x="425" y="-300" width="155" height="30" as="geometry" />
        </mxCell>
        <mxCell id="rkLHnBhGYaF2uc3NjKM3-62" value="공지사항 목록 페이지로 이동" style="text;html=1;strokeColor=none;fillColor=none;align=center;verticalAlign=middle;whiteSpace=wrap;rounded=0;" vertex="1" parent="1">
          <mxGeometry x="720" y="390" width="130" height="30" as="geometry" />
        </mxCell>
      </root>
    </mxGraphModel>
  </diagram>
</mxfile>
